<svg xmlns="http://www.w3.org/2000/svg" width="15.398" height="11.928" viewBox="0 0 15.398 11.928">
  <path id="Icon_corebrands-minutemailer" data-name="Icon corebrands-minutemailer" d="M3.568,4.055l2.216,2.4L4.219,9.528l3.3-.591,1.5,3.624L15.4,4.2ZM3.162,9.242l.614-.5-.792.251L2.9,8.873l.329-.318L2.8,8.728a4.37,4.37,0,0,0-1.433,7.255A4.333,4.333,0,0,1,.8,13.83,4.481,4.481,0,0,1,3.567,9.712l.2-.491-.481.21-.135-.183Zm2.8-1.263L6.987,6.17l6.029-1.411Z" transform="translate(0.001 -4.055)" fill="#fff"/>
</svg>
