<svg xmlns="http://www.w3.org/2000/svg" width="24.753" height="24.75" viewBox="0 0 24.753 24.75">
  <path id="Icon_ion-ios-telephone" data-name="Icon ion-ios-telephone" d="M29.243,23.59c-1.027-1.055-3.945-3.03-5.857-3.03a2.08,2.08,0,0,0-1.146.3A6.293,6.293,0,0,1,20.2,21.923c-.2,0-.408-.176-.872-.577l-.077-.07a24.4,24.4,0,0,1-2.06-1.927l-.127-.134c-.091-.091-.169-.176-.246-.253-.436-.45-.752-.773-1.87-2.039l-.049-.056c-.534-.6-.886-1-.907-1.287s.225-.738.851-1.589a3.477,3.477,0,0,0,.091-3.762A17.112,17.112,0,0,0,12.67,6.982L12.6,6.9a3.036,3.036,0,0,0-2.384-1.266,4.221,4.221,0,0,0-2.25.816c-.035.021-.07.049-.105.07A4.513,4.513,0,0,0,5.906,8.852c-.4,1.3-.668,2.988,1.252,6.5a31.4,31.4,0,0,0,5.555,7.53A33.56,33.56,0,0,0,18.2,27.548c2.489,1.8,4.88,2.834,6.553,2.834a4.781,4.781,0,0,0,4.521-2.1c1.828-2.208,1.069-3.558-.028-4.69Z" transform="translate(-5.62 -5.632)" fill="#93c4fe"/>
</svg>
