<svg width="60" height="12" viewBox="0 0 60 12" fill="none" xmlns="http://www.w3.org/2000/svg">
<path d="M49.8 3.74401H59.064V4.58401H49.8V3.74401ZM49.02 1.16401H58.584V1.95601H49.02V1.16401ZM53.232 0.0120087H54.132V1.64401H53.232V0.0120087ZM49.308 3.74401H50.196V5.58001C50.196 5.98001 50.176 6.41601 50.136 6.88801C50.104 7.36001 50.036 7.84401 49.932 8.34001C49.836 8.82801 49.696 9.30401 49.512 9.76801C49.328 10.232 49.088 10.66 48.792 11.052C48.744 10.996 48.676 10.928 48.588 10.848C48.5 10.768 48.408 10.692 48.312 10.62C48.224 10.548 48.148 10.496 48.084 10.464C48.356 10.096 48.572 9.70401 48.732 9.28801C48.9 8.87201 49.024 8.44801 49.104 8.01601C49.184 7.57601 49.236 7.14801 49.26 6.73201C49.292 6.31601 49.308 5.92801 49.308 5.56801V3.74401ZM56.028 4.51201L56.772 4.92001C56.348 5.19201 55.84 5.44001 55.248 5.66401C54.664 5.88001 54.048 6.06801 53.4 6.22801C52.752 6.38801 52.116 6.52001 51.492 6.62401C51.436 6.52801 51.364 6.41601 51.276 6.28801C51.188 6.16001 51.1 6.05201 51.012 5.96401C51.604 5.88401 52.216 5.77601 52.848 5.64001C53.488 5.50401 54.084 5.34001 54.636 5.14801C55.196 4.95601 55.66 4.74401 56.028 4.51201ZM56.832 6.09601L57.612 6.49201C57.156 6.85201 56.604 7.17201 55.956 7.45201C55.316 7.73201 54.624 7.97601 53.88 8.18401C53.136 8.39201 52.388 8.56001 51.636 8.68801C51.588 8.59201 51.52 8.48001 51.432 8.35201C51.344 8.21601 51.252 8.10001 51.156 8.00401C51.876 7.90001 52.596 7.76001 53.316 7.58401C54.036 7.40001 54.704 7.18401 55.32 6.93601C55.936 6.68001 56.44 6.40001 56.832 6.09601ZM50.94 2.10001L51.768 1.89601C51.92 2.16001 52.064 2.44801 52.2 2.76001C52.344 3.07201 52.44 3.34801 52.488 3.58801L51.6 3.82801C51.56 3.59601 51.476 3.32001 51.348 3.00001C51.228 2.67201 51.092 2.37201 50.94 2.10001ZM55.848 1.81201L56.844 2.06401C56.684 2.37601 56.512 2.69601 56.328 3.02401C56.152 3.35201 55.992 3.63201 55.848 3.86401L55.056 3.63601C55.152 3.46001 55.248 3.26801 55.344 3.06001C55.448 2.84401 55.544 2.62801 55.632 2.41201C55.72 2.18801 55.792 1.98801 55.848 1.81201ZM57.924 7.65601L58.764 8.07601C58.228 8.62801 57.556 9.10001 56.748 9.49201C55.94 9.88401 55.036 10.208 54.036 10.464C53.036 10.72 51.98 10.92 50.868 11.064C50.828 10.944 50.764 10.804 50.676 10.644C50.596 10.492 50.512 10.364 50.424 10.26C51.496 10.148 52.512 9.98001 53.472 9.75601C54.44 9.53201 55.308 9.24801 56.076 8.90401C56.844 8.56001 57.46 8.14401 57.924 7.65601Z" fill="black"/>
<path d="M39.372 8.412H40.236V9.816C40.236 9.96 40.28 10.052 40.368 10.092C40.464 10.132 40.664 10.152 40.968 10.152C41.04 10.152 41.168 10.152 41.352 10.152C41.544 10.152 41.756 10.152 41.988 10.152C42.228 10.152 42.448 10.152 42.648 10.152C42.856 10.152 43.008 10.152 43.104 10.152C43.272 10.152 43.396 10.128 43.476 10.08C43.556 10.032 43.612 9.936 43.644 9.792C43.684 9.64 43.712 9.412 43.728 9.108C43.816 9.164 43.936 9.22 44.088 9.276C44.248 9.332 44.388 9.372 44.508 9.396C44.484 9.804 44.428 10.116 44.34 10.332C44.252 10.548 44.116 10.696 43.932 10.776C43.756 10.856 43.512 10.896 43.2 10.896C43.144 10.896 43.036 10.896 42.876 10.896C42.724 10.896 42.548 10.896 42.348 10.896C42.148 10.896 41.944 10.896 41.736 10.896C41.536 10.896 41.36 10.896 41.208 10.896C41.056 10.896 40.956 10.896 40.908 10.896C40.492 10.896 40.172 10.864 39.948 10.8C39.732 10.744 39.58 10.636 39.492 10.476C39.412 10.324 39.372 10.108 39.372 9.828V8.412ZM40.416 8.208L40.956 7.716C41.316 7.852 41.68 8.032 42.048 8.256C42.424 8.472 42.72 8.684 42.936 8.892L42.36 9.444C42.16 9.236 41.872 9.016 41.496 8.784C41.128 8.552 40.768 8.36 40.416 8.208ZM44.34 8.82L45.048 8.388C45.328 8.556 45.608 8.752 45.888 8.976C46.168 9.192 46.424 9.416 46.656 9.648C46.896 9.88 47.084 10.1 47.22 10.308L46.464 10.8C46.336 10.592 46.156 10.368 45.924 10.128C45.7 9.896 45.452 9.664 45.18 9.432C44.908 9.2 44.628 8.996 44.34 8.82ZM37.872 8.436L38.64 8.724C38.48 9.132 38.26 9.524 37.98 9.9C37.708 10.276 37.344 10.58 36.888 10.812L36.18 10.296C36.604 10.096 36.956 9.828 37.236 9.492C37.516 9.156 37.728 8.804 37.872 8.436ZM43.272 6.24V7.248H44.952V6.24H43.272ZM40.836 6.24V7.248H42.492V6.24H40.836ZM38.46 6.24V7.248H40.068V6.24H38.46ZM37.62 5.652H45.828V7.836H37.62V5.652ZM36.684 0.852H46.764V2.796H45.888V1.524H37.536V2.796H36.684V0.852ZM38.172 2.196H45.192V2.76H38.172V2.196ZM37.968 3.36H45.456V3.924H37.968V3.36ZM36.468 4.536H46.992V5.148H36.468V4.536ZM41.232 0H42.12V1.164H41.232V0ZM41.232 1.584H42.12V4.86H41.232V1.584Z" fill="black"/>
<path d="M13.356 9.288H22.116V10.2H13.356V9.288ZM13.38 5.004H22.116V5.904H13.38V5.004ZM12.876 0.828003H22.596V10.932H21.672V1.704H13.764V10.932H12.876V0.828003ZM17.184 1.236H18.096V9.756H17.184V1.236Z" fill="black"/>
<path d="M2.208 4.284H6.42V5.076H2.208V4.284ZM6.708 4.284H11.088V5.064H6.708V4.284ZM3.996 2.52H4.812V11.016H3.996V2.52ZM8.316 2.52H9.144V11.016H8.316V2.52ZM3.912 4.716L4.5 4.896C4.348 5.472 4.156 6.048 3.924 6.624C3.7 7.192 3.444 7.716 3.156 8.196C2.876 8.668 2.584 9.064 2.28 9.384C2.208 9.288 2.116 9.18 2.004 9.06C1.892 8.932 1.784 8.832 1.68 8.76C1.992 8.488 2.288 8.136 2.568 7.704C2.856 7.272 3.116 6.796 3.348 6.276C3.58 5.756 3.768 5.236 3.912 4.716ZM8.232 4.716L8.796 4.896C8.628 5.48 8.42 6.06 8.172 6.636C7.924 7.204 7.652 7.732 7.356 8.22C7.06 8.7 6.752 9.1 6.432 9.42C6.36 9.324 6.264 9.216 6.144 9.096C6.032 8.976 5.932 8.88 5.844 8.808C6.164 8.536 6.476 8.18 6.78 7.74C7.084 7.3 7.36 6.82 7.608 6.3C7.864 5.772 8.072 5.244 8.232 4.716ZM9.3 4.68C9.444 5.176 9.628 5.684 9.852 6.204C10.076 6.716 10.324 7.188 10.596 7.62C10.868 8.052 11.144 8.408 11.424 8.688C11.328 8.76 11.22 8.856 11.1 8.976C10.98 9.096 10.88 9.212 10.8 9.324C10.536 8.996 10.272 8.588 10.008 8.1C9.752 7.612 9.512 7.088 9.288 6.528C9.072 5.96 8.892 5.404 8.748 4.86L9.3 4.68ZM4.716 5.436C4.796 5.5 4.92 5.612 5.088 5.772C5.264 5.924 5.452 6.096 5.652 6.288C5.852 6.472 6.032 6.644 6.192 6.804C6.36 6.964 6.476 7.08 6.54 7.152L6.06 7.872C5.964 7.752 5.836 7.6 5.676 7.416C5.524 7.232 5.356 7.04 5.172 6.84C4.988 6.64 4.812 6.456 4.644 6.288C4.484 6.112 4.352 5.972 4.248 5.868L4.716 5.436ZM5.604 0H6.528V1.92H5.604V0ZM1.5 1.38H11.088V2.244H1.5V1.38ZM0.96 1.38H1.86V4.632C1.86 5.088 1.844 5.588 1.812 6.132C1.788 6.676 1.736 7.236 1.656 7.812C1.584 8.38 1.476 8.936 1.332 9.48C1.188 10.016 0.992 10.512 0.744 10.968C0.696 10.912 0.624 10.848 0.528 10.776C0.44 10.704 0.344 10.632 0.24 10.56C0.144 10.496 0.064 10.448 0 10.416C0.224 9.992 0.4 9.536 0.528 9.048C0.656 8.552 0.752 8.048 0.816 7.536C0.88 7.024 0.92 6.52 0.936 6.024C0.952 5.528 0.96 5.064 0.96 4.632V1.38Z" fill="black"/>
</svg>
