<svg xmlns="http://www.w3.org/2000/svg" width="379.795" height="60.078" viewBox="0 0 379.795 60.078">
  <path id="パス_27" data-name="パス 27" d="M14.495-25.35a69.688,69.688,0,0,0-9.3.845H5.005a.548.548,0,0,1-.455-.325L3.38-27.3a.376.376,0,0,1-.065-.26q0-.325.455-.325,3.575.325,7.93.455H47.58l4.875-7.085q.26-.455.715-.065,1.495,1.3,3.8,3.445t4.648,4.42q.325.325.195.585-.39.78-1.82.78ZM89.83-53.95a.656.656,0,0,1,.13-.422.35.35,0,0,1,.39-.1l5.395.78q4.68.195,4.68.91,0,.26-.65.715l-1.17.715a98.909,98.909,0,0,0,3.38,22.2,38.615,38.615,0,0,0,8.58,15.5q5.915,6.435,16.12,10.465.39.195.39.455a.53.53,0,0,1-.52.585A7.656,7.656,0,0,0,122.493.228,10.232,10.232,0,0,0,120.25,4.81a.428.428,0,0,1-.228.325.526.526,0,0,1-.423-.065,35.857,35.857,0,0,1-11.862-10.6,45.117,45.117,0,0,1-6.6-14.56,109.685,109.685,0,0,1-2.99-19.24A73.623,73.623,0,0,1,95.03-22,43.051,43.051,0,0,1,86.482-7.117Q80.4,0,69.485,5.525a.523.523,0,0,1-.715-.2l-.065-.13q-.325-.455.065-.715a54.091,54.091,0,0,0,13.1-13.91A49.553,49.553,0,0,0,88.3-24.472,91.254,91.254,0,0,0,90.48-41.405l.065-2.275A67.407,67.407,0,0,0,89.83-53.95Zm97.305,26.39a5.943,5.943,0,0,1,2.6,4.81,2.635,2.635,0,0,1-.715,1.95,2.548,2.548,0,0,1-1.885.715,5.536,5.536,0,0,1-3.9-1.885,28.072,28.072,0,0,1-5.622-7.865,54.67,54.67,0,0,1-3.023-8.255,55.271,55.271,0,0,0,.91,6.76q.39,2.34.617,4.257a39.6,39.6,0,0,1,.228,4.583q0,10.4-4.323,17.257T158.34,1.625A17.7,17.7,0,0,1,149.6-.487a14.668,14.668,0,0,1-5.883-5.947,18.389,18.389,0,0,1-2.08-8.905,24.859,24.859,0,0,1,2.795-11.278,64.184,64.184,0,0,1,7.735-11.6,11.059,11.059,0,0,1-3.152,1.268,12.485,12.485,0,0,1-2.632.357,6.806,6.806,0,0,1-4.225-1.56,10.07,10.07,0,0,1-1.82-2.112,3.968,3.968,0,0,1-.78-1.723q0-.195.13-.195a.986.986,0,0,1,.357.1,2.773,2.773,0,0,0,.618.162,15.91,15.91,0,0,0,3.12.325,13.91,13.91,0,0,0,5.4-.845,13.523,13.523,0,0,0,3.575-2.275,10.9,10.9,0,0,1,1.268-.942,2.045,2.045,0,0,1,1.072-.293,7.23,7.23,0,0,1,3.738,1.105q1.853,1.105,1.852,2.275a2.174,2.174,0,0,1-.715,1.56,11.7,11.7,0,0,1-2.08,1.56q-1.365.91-1.495,1.04a27.86,27.86,0,0,0-6.63,9.555,27.7,27.7,0,0,0-2.34,10.855,15.186,15.186,0,0,0,2.665,9.263q2.665,3.607,8.19,3.607,7.93,0,11.668-5.72T173.68-27.1a81.345,81.345,0,0,0-.91-11.375q-.13-1.17-.65-3.64a30.273,30.273,0,0,1-.65-4.485,3.685,3.685,0,0,1,.682-2.275,2.326,2.326,0,0,1,1.983-.91,2.183,2.183,0,0,1,1.95,1.2,11.555,11.555,0,0,1,1.105,4.063,34.607,34.607,0,0,0,1.462,6.76,16.927,16.927,0,0,0,2.925,5.167A29.541,29.541,0,0,0,187.135-27.56ZM229.45,1.95q-7.41,0-11.765-2.632T213.33-9.3a14.4,14.4,0,0,1,2.4-8.288,28.283,28.283,0,0,1,7.345-6.987,12.206,12.206,0,0,1-3.445-4.128,12.562,12.562,0,0,1-1.04-5.427,19.163,19.163,0,0,1,.26-3.218q.26-1.527.715-3.737.325-1.365.552-2.7a14.268,14.268,0,0,0,.228-2.372,8.181,8.181,0,0,0-1.69-5.33,5.636,5.636,0,0,0-.812-.78q-.487-.39-.488-.585,0-.455,1.235-.455a12.08,12.08,0,0,1,3.055.52,9.324,9.324,0,0,1,4.388,2.243,5.546,5.546,0,0,1,1.787,4.257,6.7,6.7,0,0,1-.39,2.308A20.415,20.415,0,0,1,226.2-41.34a11.564,11.564,0,0,0-.65,1.17,18,18,0,0,0-1.463,3.64,13.809,13.809,0,0,0-.552,3.77,9.711,9.711,0,0,0,.78,3.8q.78,1.852,1.885,1.852a10.09,10.09,0,0,0,4.225-1.625A19.319,19.319,0,0,1,232.9-30a5.2,5.2,0,0,1,1.95-.423,6.433,6.433,0,0,1,3.705,1.1,3.1,3.1,0,0,1,1.625,2.535,2.3,2.3,0,0,1-1.625,2.275,32.74,32.74,0,0,1-5.85,1.365q-7.215,1.17-10.855,4.355a9.721,9.721,0,0,0-3.64,7.54,6.417,6.417,0,0,0,1.885,4.94q1.885,1.755,5.85,1.755a19.387,19.387,0,0,0,3.055-.26q1.625-.26,3.12-.585.455-.065,2.08-.39a15.91,15.91,0,0,1,3.12-.325,6.086,6.086,0,0,1,3.673.942,3.093,3.093,0,0,1,1.268,2.632q0,2.665-3.933,3.575A39.481,39.481,0,0,1,229.45,1.95Zm66.3-45.045a7.692,7.692,0,0,1,4.875,2.047A15.261,15.261,0,0,1,304.753-35a24.984,24.984,0,0,1,1.658,9.588q0,12.675-6.143,19.825T283.66,4.03l-.845.13A.4.4,0,0,1,282.49,4a.491.491,0,0,1-.13-.293.548.548,0,0,1,.325-.455Q291.72-.39,295.328-8.125a39.638,39.638,0,0,0,3.607-16.965,32.6,32.6,0,0,0-1.365-10.237q-1.365-4.062-4.03-4.062-2.4,0-4.355,2.7a21.331,21.331,0,0,0-3.055,6.3,21.092,21.092,0,0,0-1.105,5.882,6.869,6.869,0,0,0,.423,2.47,21.311,21.311,0,0,0,1.2,2.535,20.26,20.26,0,0,1,1.04,2.243,5.29,5.29,0,0,1,.325,1.852,2.514,2.514,0,0,1-.78,1.95,2.69,2.69,0,0,1-1.885.715,5.057,5.057,0,0,1-3.705-1.658,10.988,10.988,0,0,1-2.5-4.258,16.56,16.56,0,0,1-.877-5.33,34.994,34.994,0,0,1,.617-6.338q.617-3.348,1.723-8.157.845-3.51,1.267-5.72a20.819,20.819,0,0,0,.423-3.835,4.336,4.336,0,0,0-1.04-3.185,4.624,4.624,0,0,0-1.138-.943q-.617-.357-.617-.552,0-.39.617-.78a3.678,3.678,0,0,1,1.918-.39,4.962,4.962,0,0,1,4.29,2.08,8.568,8.568,0,0,1,1.495,5.135,15.222,15.222,0,0,1-.358,3.51q-.357,1.5-1.137,3.77a33.719,33.719,0,0,0-1.3,4.29q-.39,1.625-.585,3.055A32.058,32.058,0,0,1,289.7-40.56,8.115,8.115,0,0,1,295.75-43.095Zm62.855-2.535a30.124,30.124,0,0,1,11.538,2.308,21.359,21.359,0,0,1,9.295,7.345Q383.11-30.94,383.11-23.2a20.249,20.249,0,0,1-4.55,13.52,26.506,26.506,0,0,1-11.83,7.93A47.11,47.11,0,0,1,351.13.78q-1.95,0-1.95-.325t1.138-.52q1.137-.2,1.267-.2a40.081,40.081,0,0,0,12.383-4.128,23.642,23.642,0,0,0,8.71-7.832A20.173,20.173,0,0,0,375.895-23.6q0-7.995-3.25-12.447a16.259,16.259,0,0,0-7.378-5.98,21.707,21.707,0,0,0-7.442-1.528,8.336,8.336,0,0,0-1.235.065,20.121,20.121,0,0,1,1.365,4.257,23.227,23.227,0,0,1,.585,5.037,32.966,32.966,0,0,1-2.34,12.48,50.065,50.065,0,0,1-4.713,8.97,29.885,29.885,0,0,1-5.362,6.272q-2.665,2.243-4.485,2.243-2.405,0-4.68-2.6a20.267,20.267,0,0,1-3.7-6.6,23,23,0,0,1-1.43-7.768,21.788,21.788,0,0,1,3.965-12.935,26.015,26.015,0,0,1,10.14-8.548A29.038,29.038,0,0,1,358.605-45.63Zm-2.535,6.89a13.979,13.979,0,0,0-.715-4.68,20.2,20.2,0,0,0-9.328,3.478,20.8,20.8,0,0,0-6.565,7.247,18.888,18.888,0,0,0-2.372,9.165,16.589,16.589,0,0,0,.91,5.85,10.222,10.222,0,0,0,2.145,3.64A3.374,3.374,0,0,0,342.16-12.8q2.73,0,7.8-7.54a42.081,42.081,0,0,0,4.68-9.23A28.416,28.416,0,0,0,356.07-38.74Z" transform="translate(-3.315 54.489)" fill="#ccc9c7"/>
</svg>
