<svg xmlns="http://www.w3.org/2000/svg" width="377.91" height="61.75" viewBox="0 0 377.91 61.75">
  <path id="パス_28" data-name="パス 28" d="M56.875-11.895a5.313,5.313,0,0,1,1.885,1.17,34.436,34.436,0,0,1,2.827,2.47Q62.92-6.955,62.92-6.5a1,1,0,0,1-.52.78,2.194,2.194,0,0,1-1.1.26H47.19v2.99l.13,2.405q0,1.04.13,2.86a1.124,1.124,0,0,1-.065.65,6,6,0,0,1-2.275,1.56,7.874,7.874,0,0,1-3.315.78q-1.69,0-1.69-1.3.26-2.4.39-6.175V-5.46H35.75a54.847,54.847,0,0,0-8.255.845h-.2a.548.548,0,0,1-.455-.325l-1.5-2.8q-3.185,3.055-6.435,5.98A3.057,3.057,0,0,1,17.94-.2a.376.376,0,0,1-.26.065q-.26,0-.39-.325l-3.055-6.76q-.2-.585.26-.65.52-.195,1.235-.39t1.69-.52V-28.8H14.3a120.437,120.437,0,0,1-.878,13.2A48.639,48.639,0,0,1,10.6-4.388,30.022,30.022,0,0,1,4.55,5.33a.59.59,0,0,1-.423.2.408.408,0,0,1-.358-.2l-.195-.195A.619.619,0,0,1,3.51,4.42,41.3,41.3,0,0,0,6.727-5.59,73.554,73.554,0,0,0,7.963-15.86Q8.19-20.8,8.255-28.8H6.7a4.347,4.347,0,0,0-1.885.585.588.588,0,0,1-.422.1.344.344,0,0,1-.293-.292L3.055-30.55l-.065-.26q0-.39.52-.26,2.925.26,5.85.39h3.185V-41.47a99.769,99.769,0,0,0-.715-12.675v-.13q0-.52.585-.39,4.355,1.04,6.045,1.658t1.69,1.072q0,.26-.455.52l-.91.585v20.15H20.54l2.925-3.77q.26-.39.715-.065,2.99,2.34,4.81,4.03,0-2.665-.195-4.875v-.13q0-.52.52-.325l6.7,2.86H40.5V-37.83H36.4a41.164,41.164,0,0,0-7.085.845H29.12a.548.548,0,0,1-.455-.325L27.5-39.585a.376.376,0,0,1-.065-.26q0-.325.455-.325,3.575.325,7.93.455H40.5a53.852,53.852,0,0,0-.39-6.89q0-.65.585-.52a62.453,62.453,0,0,1,6.273,1.755q1.723.65,1.722,1.105,0,.2-.455.52l-1.04.715v3.315h4.485l1.5-2.015q.26-.325.715-.91a9.874,9.874,0,0,1,.748-.877.821.821,0,0,1,.552-.293q.585,0,2.828,1.82a11.673,11.673,0,0,1,2.763,2.8l.065.26a.905.905,0,0,1-.487.813,2.3,2.3,0,0,1-1.2.292H47.19v4.875h4.875l1.365-2.08q.26-.325.682-.91t.682-.878a.721.721,0,0,1,.52-.292q.585,0,2.892,1.95a13.671,13.671,0,0,1,2.892,2.99q.2.26-.13.585a3.962,3.962,0,0,1-2.145.975v5.785q.2,7.02.39,10.79a.882.882,0,0,1-.26.65,6.1,6.1,0,0,1-2.113,1.073,10.572,10.572,0,0,1-3.347.488h-.65a.46.46,0,0,1-.52-.52v-2.08H47.19v7.15H53.3l1.56-2.275q.26-.39.715-1.04a10.75,10.75,0,0,1,.748-.975A.8.8,0,0,1,56.875-11.895ZM20.15-37.635q.585-3.055.942-6.5a48.471,48.471,0,0,0,.293-6.11.469.469,0,0,1,.162-.39.372.372,0,0,1,.423,0l6.37,2.6a3.781,3.781,0,0,1,.975-.65,9.233,9.233,0,0,0,2.112-2.178,5.665,5.665,0,0,0,1.137-2.762q0-.52.455-.52.52,0,.585.39a11.435,11.435,0,0,1,.65,2.535H53.69l1.43-1.69q.26-.26.91-1.007t1.04-.748q.52,0,2.763,2.145a15.646,15.646,0,0,1,2.827,3.25.493.493,0,0,1-.13.65,5.9,5.9,0,0,1-2.145.455q-1.365,1.17-3.25,2.568T53.69-43.225a.59.59,0,0,1-.65,0,.59.59,0,0,1-.26-.65q.455-1.755.91-4.095a11.334,11.334,0,0,0,.325-1.365h-19.5a10.508,10.508,0,0,1-.422,4.257,5.433,5.433,0,0,1-1.853,2.7,3.31,3.31,0,0,1-2.08.65,3.529,3.529,0,0,1-1.917-.553,3.108,3.108,0,0,1-1.267-1.592,3.556,3.556,0,0,1-.13-.78,102.934,102.934,0,0,1-6.435,10.4.524.524,0,0,1-.39.26q-.585,0-.455-.65ZM6.305-35.165a.624.624,0,0,1-.2-.455v-1.495A51.763,51.763,0,0,0,4.225-49.4v-.13a.506.506,0,0,1,.325-.52.57.57,0,0,1,.715.13,18.712,18.712,0,0,1,4.713,5.753,12.488,12.488,0,0,1,1.462,5.492,5.805,5.805,0,0,1-.877,3.315,2.526,2.526,0,0,1-2.113,1.3A2.98,2.98,0,0,1,6.305-35.165Zm28.99,10.4h5.2v-6.3h-5.2Zm17.03-6.3H47.19v6.3h5.135ZM23.465-28.8V-10.79L28.99-12.8V-28.99a2.171,2.171,0,0,1-.975.195ZM35.295-16.25h5.2v-6.695h-5.2Zm17.03-6.695H47.19v6.695h5.135ZM40.5-7.28v-7.15h-5.2v2.275q0,.26-.65.65a6.839,6.839,0,0,1-1.82.682,11.026,11.026,0,0,1-2.665.293h-.65q-.52,0-.52-.39v-.39L25.415-7.8q3.575.39,8.58.52Zm75.2-26.78a3.552,3.552,0,0,1-.91,2.275,12.232,12.232,0,0,1-2.015,1.95,28.016,28.016,0,0,1-5.395,2.86q1.885,2.86,3.965,6.305.26.455,1.137,1.917a14.3,14.3,0,0,1,1.2,2.372,5.049,5.049,0,0,1,.325,1.69,6.649,6.649,0,0,1-.683,2.73,7.991,7.991,0,0,1-1.787,2.535,3.263,3.263,0,0,1-2.21,1.04,3.511,3.511,0,0,1-2.4-1.235,18.694,18.694,0,0,0-6.11-4.257,16.8,16.8,0,0,0-6.565-1.4,11.247,11.247,0,0,0-6.143,1.625A5.16,5.16,0,0,0,85.54-9.035a4.726,4.726,0,0,0,1.5,3.77,6.03,6.03,0,0,0,4.1,1.3,16.891,16.891,0,0,0,3.77-.52,14.613,14.613,0,0,1,3.38-.52,9.2,9.2,0,0,1,4.452,1.04A3.211,3.211,0,0,1,104.65-1.04a3.356,3.356,0,0,1-.78,2.145A3.567,3.567,0,0,1,101.6,2.34a17.585,17.585,0,0,1-2.47.293q-1.56.1-2.34.1A20.992,20.992,0,0,1,86.027.033,8.247,8.247,0,0,1,81.64-7.41a7.9,7.9,0,0,1,1.95-5.363,12.216,12.216,0,0,1,5.168-3.412,20.3,20.3,0,0,1,6.987-1.17,60.526,60.526,0,0,1,6.89.65l2.015.195q1.95,0,1.95-1.235a4.049,4.049,0,0,0-.52-1.69q-.715-1.885-2.795-6.175a32.25,32.25,0,0,1-9.165,1.495q-8.97,0-12.935-5.655a4.842,4.842,0,0,1-1.1-2.4.23.23,0,0,1,.26-.26,1.923,1.923,0,0,1,.975.52A15.624,15.624,0,0,0,86.06-29.9a22.863,22.863,0,0,0,5.915.78,25.949,25.949,0,0,0,8.58-1.625l-2.405-4.42-.78-1.43a18.454,18.454,0,0,1-6.045,1.1,8.3,8.3,0,0,1-5.395-1.592,15,15,0,0,1-3.64-4.972q-.065-.13-.228-.487a1.475,1.475,0,0,1-.162-.552q0-.26.195-.26a1.213,1.213,0,0,1,.682.358q.423.357,1.008.877a7.242,7.242,0,0,0,2.34,1.3,9,9,0,0,0,3.185.585A10.956,10.956,0,0,0,94.055-41.6,24.961,24.961,0,0,0,91.1-44.98a27.1,27.1,0,0,0-3.283-2.6,9.4,9.4,0,0,0-2.925-1.365,3.719,3.719,0,0,1-1.007-.39.6.6,0,0,1-.293-.52q0-.91,1.625-1.592a7.913,7.913,0,0,1,3.055-.682,6.878,6.878,0,0,1,3.9,1.17,8.444,8.444,0,0,1,2.86,3.445,32.982,32.982,0,0,0,2.145,4.29l.975-.39a7.361,7.361,0,0,1,2.34-.39,3.836,3.836,0,0,1,2.4.747,2.2,2.2,0,0,1,.975,1.787,2.8,2.8,0,0,1-.52,1.56,4.436,4.436,0,0,1-1.56,1.365l-1.43.715.975,1.56a23.34,23.34,0,0,0,5.135.585,15.77,15.77,0,0,0,1.95-.13q1.04-.13,1.43-.2a12.7,12.7,0,0,1,2.665-.325,4.43,4.43,0,0,1,2.372.52A1.922,1.922,0,0,1,115.7-34.06ZM104-32.11l.455-.26q1.17-.78,1.17-1.235t-.78-.65a24.516,24.516,0,0,1-2.73-.845Zm69.29,10.465q-6.11,2.015-8.385,2.925a24.834,24.834,0,0,0,.26,3.12,25.989,25.989,0,0,1,.195,3.445,4.653,4.653,0,0,1-1.04,2.86,2.993,2.993,0,0,1-2.405,1.365A3.153,3.153,0,0,1,159.542-9a3.619,3.619,0,0,1-1.007-2.568q0-.845.39-4.485-7.215,3.77-7.215,7.735,0,4.225,8.06,4.225a26.641,26.641,0,0,0,4.29-.293q1.755-.292,3.965-.877a16.731,16.731,0,0,1,4.225-.715,4.7,4.7,0,0,1,2.827.78,2.571,2.571,0,0,1,1.072,2.21q0,2.73-3.932,3.933a30.064,30.064,0,0,1-8.807,1.2q-6.565,0-10.465-2.145a7.073,7.073,0,0,1-3.9-6.63,9.158,9.158,0,0,1,2.7-6.305,34.418,34.418,0,0,1,7.378-5.785q.065-.65.065-2.015a13.432,13.432,0,0,0-.91-4.972q-.91-2.307-2.145-2.307a4.171,4.171,0,0,0-3.315,2.047A44.062,44.062,0,0,0,149.5-20.41a18.759,18.759,0,0,1-1.235,2.34,29.057,29.057,0,0,1-2.4,3.282,2.8,2.8,0,0,1-2.145,1.008,2.814,2.814,0,0,1-2.372-1.333A5.211,5.211,0,0,1,140.4-18.2a4.921,4.921,0,0,1,.78-2.8,16.538,16.538,0,0,1,2.665-2.86,41.209,41.209,0,0,0,5.2-5.33,29.964,29.964,0,0,0,4.81-8.905,41.272,41.272,0,0,1-4.81.325,7.468,7.468,0,0,1-4.322-1.267,20.5,20.5,0,0,1-3.933-3.738.749.749,0,0,1-.26-.52q0-.2.26-.195a3.118,3.118,0,0,1,.91.195,13.822,13.822,0,0,0,5.33,1.105,29.091,29.091,0,0,0,3.705-.293,29.25,29.25,0,0,0,4.42-.942,16.4,16.4,0,0,0,.26-3.055,4.293,4.293,0,0,0-2.275-4.1q-.13-.065-.423-.228a1.426,1.426,0,0,1-.423-.325.656.656,0,0,1-.13-.423,2.274,2.274,0,0,1,.52-1.268,1.588,1.588,0,0,1,1.3-.552,14.448,14.448,0,0,1,3.25.39,6.016,6.016,0,0,1,2.535,1.1,2.5,2.5,0,0,1,.715,1.95,10.69,10.69,0,0,1-.13,1.235,6.435,6.435,0,0,0,2.795.65,6.676,6.676,0,0,0,1.625-.195,13.793,13.793,0,0,1,1.56-.13,1.864,1.864,0,0,1,1.2.39,1.334,1.334,0,0,1,.487,1.1,4.847,4.847,0,0,1-1.17,2.99,11.637,11.637,0,0,1-3.445,2.795,22.987,22.987,0,0,1-5.915,2.275,63.57,63.57,0,0,1-4.16,9.425,6.346,6.346,0,0,1,2.86-.715q5.85,0,7.475,5.72a24.311,24.311,0,0,1,4.745-7.93,23.766,23.766,0,0,1,4.712-3.932,10.642,10.642,0,0,1,5.883-1.787,6.737,6.737,0,0,1,4.777,1.722,5.881,5.881,0,0,1,1.852,4.517,6.95,6.95,0,0,1-3.12,5.72,26.943,26.943,0,0,1-7.475,3.835Zm-13.845-23.4q1.04-.52,1.56-.845.455-.26.455-.52,0-.2-.52-.585a5.527,5.527,0,0,0-.78-.52Zm10.01,13.78a18.526,18.526,0,0,0-4.29,9.23l.845-.455,2.6-1.365q3.64-1.82,5.2-2.73a12.655,12.655,0,0,0,3.965-3.185,5.45,5.45,0,0,0,1.365-3.25,2.309,2.309,0,0,0-.682-1.755,2.669,2.669,0,0,0-1.917-.65,7.156,7.156,0,0,0-3.478,1.04A13.428,13.428,0,0,0,169.455-31.265Zm40.69,3.185v-3.965h-3.77v.715q0,.455-1.527,1.137a7.505,7.505,0,0,1-3.088.683,1.027,1.027,0,0,1-.877-.39,1.475,1.475,0,0,1-.293-.91q.2-1.625.26-3.185l.065-1.5v-3.055a68.956,68.956,0,0,0-.52-8.905q-.13,0-.325-.39l-1.17-2.275a.376.376,0,0,1-.065-.26q0-.325.52-.325,3.12.325,7.02.455h3.77a35.751,35.751,0,0,0-.26-4.745q0-.65.585-.455a58.362,58.362,0,0,1,5.85,1.658q1.625.617,1.625,1.072,0,.2-.455.52l-.975.585v1.365h3.77l1.3-1.95q.195-.26.585-.812a6.652,6.652,0,0,1,.682-.845.821.821,0,0,1,.553-.293q.52,0,2.568,1.755a10.929,10.929,0,0,1,2.5,2.665,1.124,1.124,0,0,1-.065.65,1.547,1.547,0,0,1-1.5.715h-10.4v3.25h3.38l1.17-1.495q.195-.26.552-.715a4.831,4.831,0,0,1,.585-.65.737.737,0,0,1,.488-.2,6.491,6.491,0,0,1,2.535,1.593,9.557,9.557,0,0,1,2.4,2.5q.195.26-.13.585a3.608,3.608,0,0,1-1.365.585v10.335q0,.325-1.43.91a14.183,14.183,0,0,1,1.17,1.04q.91.715,3.51,2.99.325.455.13.715a1.528,1.528,0,0,1-1.43.65h-11.57V-23.6q0,.455-1.755,1.138a9.463,9.463,0,0,1-3.445.683,1.3,1.3,0,0,1-1.43-.975,2.735,2.735,0,0,1,.065-.65,2.478,2.478,0,0,0,.1-.52q.033-.325.1-.845V-26.26h-3.9a33.033,33.033,0,0,0-6.435.78q-.52.13-.65-.26l-1.105-2.21a.376.376,0,0,1-.065-.26q0-.325.455-.325,3.51.325,7.735.455Zm34.515-.91a47.131,47.131,0,0,0,11.31,2.6q.52.13.52.39a.51.51,0,0,1-.39.52q-3.055,1.17-3.965,5.2-.2.52-.65.325A33.866,33.866,0,0,1,239.785-26a52.357,52.357,0,0,1-5.59,2.34q6.11,3.77,6.11,4.615,0,.195-.585.325l-1.17.195a68.072,68.072,0,0,1-6.077,3.575Q228.8-13,224.965-11.31l18.265-.2a35.151,35.151,0,0,0-5.07-4.095.391.391,0,0,1-.26-.26.294.294,0,0,1,.065-.325.808.808,0,0,1,.585-.26,23.446,23.446,0,0,1,8.352,1.267,11.338,11.338,0,0,1,4.777,3.087,5.744,5.744,0,0,1,1.5,3.64,3.463,3.463,0,0,1-.878,2.4,2.956,2.956,0,0,1-2.307.975,4.341,4.341,0,0,1-1.5-.26.76.76,0,0,1-.52-.455,30.625,30.625,0,0,0-2.99-3.965q-4.55.65-14.365,1.69V-3.9l.065,2.47q.065,2.73.26,5.07a.951.951,0,0,1-.2.585,5.851,5.851,0,0,1-2.242,1.04,13.956,13.956,0,0,1-3.8.455q-1.69,0-1.69-1.3.26-2.86.39-7.345V-7.28l-9.36.91,2.99,2.665q2.925,1.885,2.925,2.47,0,.39-.715.39l-1.17.065a46,46,0,0,1-8.45,3.348A68.47,68.47,0,0,1,199.55,4.81h-.13a.588.588,0,0,1-.52-.325.438.438,0,0,1,.26-.65q2.535-1.3,4.355-2.34a39.146,39.146,0,0,0,5.07-3.64,27.351,27.351,0,0,0,4.03-4.1l-7.865.78a3.376,3.376,0,0,1-1.235,1.235.438.438,0,0,1-.65-.26L199.68-10.6l-.065-.26q0-.39.455-.39l8.19.065,12.285-.065q2.47-1.95,4.03-3.315a48.116,48.116,0,0,0,7.8-8.58q-2.145.65-4.485,1.17H227.7a.548.548,0,0,1-.455-.325l-.065-.26a.461.461,0,0,1,.325-.455,36.175,36.175,0,0,0,9.75-5.46,24.894,24.894,0,0,1-4.55-7.93h-1.17a1.765,1.765,0,0,0-1.1.52.475.475,0,0,1-.715-.13l-1.17-2.08a2.043,2.043,0,0,1-.26-.65h.065l-.13-.195a.512.512,0,0,1,.065-.715,11.122,11.122,0,0,0,2.99-4.81,20.3,20.3,0,0,0,.715-5.525V-52.26q0-1.17-.065-1.82a.572.572,0,0,1,.163-.423.336.336,0,0,1,.423-.032l6.24,2.795h2.8l1.365-1.82q.2-.26.617-.812a8.636,8.636,0,0,1,.683-.812.749.749,0,0,1,.52-.26q.52,0,2.535,1.852a12.1,12.1,0,0,1,2.535,2.893.46.46,0,0,1-.195.65,3.579,3.579,0,0,1-1.625.65v3.12a.884.884,0,0,0,.13.585.884.884,0,0,0,.585.13h2.21a1.012,1.012,0,0,0,.91-.39,15.9,15.9,0,0,0,1.56-3.315.473.473,0,0,1,.52-.455q.325,0,.325.52l.2,3.25a3.977,3.977,0,0,1,1.332,1.007,2.091,2.091,0,0,1,.358,1.268,2.344,2.344,0,0,1-1.56,2.34,15.569,15.569,0,0,1-5.4.65h-.585q4.225,3.445,4.225,4.225,0,.39-.715.52l-1.17.26A24.688,24.688,0,0,1,244.66-28.99Zm-.52-9.23,2.665-2.47h-.13a7.433,7.433,0,0,1-2.99-.455,2.131,2.131,0,0,1-1.235-1.4,11.42,11.42,0,0,1-.26-2.828v-4.55h-4.42a12.432,12.432,0,0,1-1.982,6.305q-1.918,3.12-7.118,4.94,3.705.325,8.19.455Zm-37.505-6.89h3.51v-3.25h-3.51a29.276,29.276,0,0,0-5.655.715Zm-.26,5.525h3.77v-3.7h-3.77Zm13.975-3.7h-3.835v3.7h3.835ZM206.375-37.7v3.77h3.77V-37.7Zm13.975,0h-3.835v3.77h3.835Zm19.76,6.565a21.272,21.272,0,0,0,3.77-5.265H234.2A17.451,17.451,0,0,0,240.11-31.135Zm-23.6-.91v3.965H221l2.4-3.185a7.881,7.881,0,0,1-2.08.325h-.455a.46.46,0,0,1-.52-.52v-.585ZM226.2-21a58.883,58.883,0,0,1-6.955,3.51,4.133,4.133,0,0,1,.91,2.6,3.066,3.066,0,0,1-.878,2.21,2.98,2.98,0,0,1-2.242.91,5.477,5.477,0,0,1-.91-.13.588.588,0,0,1-.52-.325,22.034,22.034,0,0,0-4.03-4.03,36.246,36.246,0,0,0-5.07-3.445q-.325-.195-.325-.39,0-.455.65-.585l1.3-.065q1.3-.13,1.82-.13a15.552,15.552,0,0,1,6.76,1.365,29.418,29.418,0,0,0,3.185-6.11q.13-.26,1.43.292a23.376,23.376,0,0,1,3.315,1.852Q228.735-21,227.175-21Zm11.505,15.99A28.662,28.662,0,0,1,246.383-3.9a11.162,11.162,0,0,1,4.908,2.762,5.082,5.082,0,0,1,1.495,3.413,3.066,3.066,0,0,1-.878,2.21,2.98,2.98,0,0,1-2.242.91,5.477,5.477,0,0,1-.91-.13,1.133,1.133,0,0,1-.585-.325A29.9,29.9,0,0,0,242.613.423a47.8,47.8,0,0,0-8.027-4.258.548.548,0,0,1-.325-.455.517.517,0,0,1,.585-.585Q236.8-5,237.705-5.005Zm78.13-50.96a12.587,12.587,0,0,1,5.59,1.268,4.1,4.1,0,0,1,2.6,3.867,2.207,2.207,0,0,1-.747,1.755,2.467,2.467,0,0,1-1.658.65,2.985,2.985,0,0,1-2.47-1.5,26.3,26.3,0,0,0-2.4-2.925,10.024,10.024,0,0,0-2.275-1.69q-.52-.26-1.2-.52t-.683-.455q0-.26,1.235-.358T315.835-55.965Zm-6.955,3.9a13.678,13.678,0,0,1,4.647.78,9.1,9.1,0,0,1,3.51,2.145,4.207,4.207,0,0,1,1.332,2.99,2.129,2.129,0,0,1-.845,1.885,3.136,3.136,0,0,1-1.82.585,2.836,2.836,0,0,1-2.6-1.69,33.184,33.184,0,0,0-2.145-3.347,8.255,8.255,0,0,0-2.47-2.113,7.6,7.6,0,0,0-.845-.423q-.52-.227-.52-.487Q307.125-52.065,308.88-52.065Zm2.08,9.88q.585.065,1.592.1a3.889,3.889,0,0,1,1.69.39,2.437,2.437,0,0,1,1.073,1.267,3.064,3.064,0,0,1,.26,1.365,4.023,4.023,0,0,1-1.95,3.38,34.161,34.161,0,0,1-6.565,3.25l.39,5.005q.39,4.81.39,6.695A24.561,24.561,0,0,1,304.2-7.15a21.122,21.122,0,0,1-6.143,6.175,45.807,45.807,0,0,1-7.573,3.965,2.277,2.277,0,0,1-.715.13q-.455,0-.455-.26t.715-.65a19.06,19.06,0,0,0,6.988-7.085,32.259,32.259,0,0,0,4-12.35,62.26,62.26,0,0,0,.585-8.905l-.065-4.615a16.837,16.837,0,0,1-2.99.325,9.923,9.923,0,0,1-5.687-1.56,18.514,18.514,0,0,1-4.193-3.965,1.677,1.677,0,0,1-.52-1.04.23.23,0,0,1,.26-.26,2.116,2.116,0,0,1,.585.2,9.4,9.4,0,0,0,2.958,1.007,16.651,16.651,0,0,0,3.022.357,30.6,30.6,0,0,0,6.24-1.17q-.455-6.37-.845-8.9a5.153,5.153,0,0,0-.975-2.568,4.355,4.355,0,0,0-1.69-1.4q-1.04-.455-1.04-.78,0-.455,1.17-.617a16.1,16.1,0,0,1,2.21-.163,13.764,13.764,0,0,1,5.46,1.17q2.73,1.17,2.73,3.185a5.165,5.165,0,0,1-.26,1.495q-.26.845-.325,1.105l-.13.52a.376.376,0,0,1-.065.26A10.262,10.262,0,0,0,310.96-42.185Zm-27.1,12.09q.325,0,.325.455,0,.065-.39,1.625-3.77,13.78-3.77,17.485A9,9,0,0,0,280.345-8a26.825,26.825,0,0,0,.975,2.665,9.334,9.334,0,0,1,.845,3.055,3.138,3.138,0,0,1-.943,2.308,2.857,2.857,0,0,1-2.048.942A3.276,3.276,0,0,1,277.03.162a11.579,11.579,0,0,1-1.95-2.177,19.167,19.167,0,0,1-3.575-8.093,46.475,46.475,0,0,1-1.04-9.653,40.045,40.045,0,0,1,.39-5.785q.39-2.665,1.17-6.435.65-2.86.943-4.777a25.185,25.185,0,0,0,.293-3.8,15.415,15.415,0,0,0-.78-5.135,9.269,9.269,0,0,0-1.69-3.185,2.62,2.62,0,0,1-.52-.78.287.287,0,0,1,.325-.325,3.933,3.933,0,0,1,1.3.39,15.065,15.065,0,0,1,6.143,4.258,9.011,9.011,0,0,1,2.242,5.882,11.132,11.132,0,0,1-.552,3.542q-.553,1.657-1.658,4.193A50.346,50.346,0,0,0,275.86-26a19.922,19.922,0,0,0-.78,5.85,23.154,23.154,0,0,0,.325,3.737q.325,1.983.78,1.983.26,0,.585-.487t.65-1.073q.845-1.755,2.535-5.59t2.665-6.76a6.68,6.68,0,0,1,.65-1.4A.73.73,0,0,1,283.855-30.095Zm25.155-9.75a.618.618,0,0,0,.26-.52q0-.585-.78-1.04l-1.3-.845a25.712,25.712,0,0,0-.26,3.315v.13A21.962,21.962,0,0,0,309.01-39.845Zm64.74-8.71a7.936,7.936,0,0,1,3.283.748,8.613,8.613,0,0,1,2.762,1.917,3.569,3.569,0,0,1,1.105,2.47,2.646,2.646,0,0,1-.78,1.95,2.646,2.646,0,0,1-1.95.78,16.559,16.559,0,0,1-2.665-.39q-.975-.195-2.177-.39a15.618,15.618,0,0,0-2.5-.195,20.312,20.312,0,0,0-4.745.715q-2.925.91-5.233,4.875a35.154,35.154,0,0,0-3.608,9.1,37.813,37.813,0,0,0-1.3,9.165,25.025,25.025,0,0,0,.65,6.467,5.527,5.527,0,0,0,2.21,3.315,8.139,8.139,0,0,0,4.42,1.008l1.625-.13q2.925-.195,3.25-.195a7.129,7.129,0,0,1,4.29,1.1,3.293,3.293,0,0,1,1.495,2.73q0,3.705-8.385,3.7Q357.24.2,353.5-3.965t-3.737-12.8a27.666,27.666,0,0,1,4-14.853A30.648,30.648,0,0,1,363.935-41.86h-.91A22.882,22.882,0,0,0,356.46-40.1a56.554,56.554,0,0,0-8.58,4.29,21.875,21.875,0,0,0-2.99,2.145,22.672,22.672,0,0,1-3.088,2.113,6.289,6.289,0,0,1-3.022.683,5.526,5.526,0,0,1-3.315-1.2A11.977,11.977,0,0,1,332.67-35a9.709,9.709,0,0,1-1.5-3.087q-.13-.78-.13-.91a.656.656,0,0,1,.13-.423.4.4,0,0,1,.325-.163,1.739,1.739,0,0,1,.845.325,5.5,5.5,0,0,0,3.12.91,8.441,8.441,0,0,0,1.365-.13q.975-.2,5.46-1.69,6.37-2.145,11.765-3.705A81.793,81.793,0,0,1,364-46.15a17.12,17.12,0,0,0,3.087-.683q1.528-.488,1.918-.618,1.625-.585,2.665-.845A8.548,8.548,0,0,1,373.75-48.555Z" transform="translate(-2.99 55.965)" fill="#ccc9c7"/>
</svg>
