<svg xmlns="http://www.w3.org/2000/svg" width="145.085" height="491.067" viewBox="0 0 145.085 491.067">
  <g id="グループ_143" data-name="グループ 143" transform="translate(-1597.99 -1187.313)">
    <g id="グループ_142" data-name="グループ 142">
      <path id="パス_25" data-name="パス 25" d="M50.9-41.145q.39-.52.878-1.235a10.282,10.282,0,0,1,.812-1.072.876.876,0,0,1,.585-.358q.585,0,3.282,2.373a15.375,15.375,0,0,1,3.217,3.413,1.14,1.14,0,0,1,.13.325.857.857,0,0,1-.52.748,2.345,2.345,0,0,1-1.17.292H45.89v18h4.29l1.95-2.86q.325-.455.91-1.267t.91-1.2q.325-.39.585-.39.585,0,3.64,2.567a18.651,18.651,0,0,1,3.64,3.608.59.59,0,0,1,0,.65q-.39.715-1.69.715H14.3a69.688,69.688,0,0,0-9.3.845h-.2a.548.548,0,0,1-.455-.325l-1.17-2.21a.376.376,0,0,1-.065-.26q0-.325.52-.325,3.51.325,7.865.455H18.33v-18H14.17a32.17,32.17,0,0,0-6.955.845h-.2a.548.548,0,0,1-.455-.325l-1.17-2.275a.376.376,0,0,1-.065-.26q0-.325.455-.325,3.575.325,7.93.455H18.33V-41.47a88.094,88.094,0,0,0-.78-12.675q0-.65.585-.52Q23.4-53.56,25.35-52.91t1.95,1.1q0,.26-.52.585l-1.17.78v11.9H38.48V-41.47a88.093,88.093,0,0,0-.78-12.675q0-.65.585-.52,5.33,1.105,7.313,1.755t1.982,1.1q0,.2-.52.585l-1.17.78v11.9h3.25ZM38.48-36.66H25.61v18H38.48ZM20.735-14.95a.411.411,0,0,1,.292-.325.487.487,0,0,1,.423.065L26-12.155q3.9,2.145,3.9,2.86,0,.325-.715.455l-1.17.195A52.534,52.534,0,0,1,17.778-.423,56.436,56.436,0,0,1,4.615,5.72q-.52.13-.65-.195a.463.463,0,0,1,.2-.715,60.192,60.192,0,0,0,10.4-9.555A34.781,34.781,0,0,0,18.3-9.815,24.722,24.722,0,0,0,20.735-14.95ZM37.57-12.09a.656.656,0,0,1-.26-.293.252.252,0,0,1,.065-.292.7.7,0,0,1,.65-.2A39.366,39.366,0,0,1,49.79-9.3a19.1,19.1,0,0,1,6.7,5.233A9.183,9.183,0,0,1,58.565,1.3a4.427,4.427,0,0,1-1.04,3.055,3.478,3.478,0,0,1-2.73,1.17,5.429,5.429,0,0,1-2.34-.52A.76.76,0,0,1,52,4.485a39.141,39.141,0,0,0-6.11-8.71A66.849,66.849,0,0,0,37.57-12.09ZM18.265,80.39a4.579,4.579,0,0,1-2.957-1.463,10.407,10.407,0,0,1-2.5-3.542,34.653,34.653,0,0,1-2.795-14.3,37.755,37.755,0,0,1,.617-7.312q.618-3.088,1.788-6.922a39.526,39.526,0,0,0,1.235-4.258,17.179,17.179,0,0,0,.39-3.673,10.509,10.509,0,0,0-.52-3.282,5.261,5.261,0,0,0-1.625-2.5q-.195-.195-.52-.487t-.325-.487q0-.13.162-.195a.954.954,0,0,1,.358-.065,6.428,6.428,0,0,1,1.1.26,13.754,13.754,0,0,1,5.882,3.217A7.881,7.881,0,0,1,20.93,41.39a8.3,8.3,0,0,1-.78,3.64,37.92,37.92,0,0,1-2.34,4.03q-1.1,1.625-1.788,2.827a11.683,11.683,0,0,0-1.072,2.568,17.14,17.14,0,0,0-.715,4.615,8.688,8.688,0,0,0,.423,2.763Q15.08,63.1,15.665,63.1a.7.7,0,0,0,.52-.357,9.41,9.41,0,0,0,.585-.943q1.04-2.015,2.243-4.452t1.853-3.8a3.057,3.057,0,0,1,.39-.618q.2-.227.325-.227.195,0,.195.26a2.491,2.491,0,0,1-.195.78q-1.17,3.38-2.275,7.54a27.394,27.394,0,0,0-1.1,6.63,12.007,12.007,0,0,0,.39,3.217,26.253,26.253,0,0,0,1.17,3.217,18.984,18.984,0,0,1,.683,1.853,5.856,5.856,0,0,1,.292,1.722,2.335,2.335,0,0,1-.715,1.82A2.513,2.513,0,0,1,18.265,80.39ZM42.12,44.25a17.276,17.276,0,0,1-7.8-1.625,9.228,9.228,0,0,1-3.12-2.21,12.119,12.119,0,0,1-1.885-2.665,2.519,2.519,0,0,1-.26-.975q0-.325.195-.325a2.027,2.027,0,0,1,.65.325q.52.325.845.52a15.24,15.24,0,0,0,5.59,1.04,25.272,25.272,0,0,0,4.257-.455,40.892,40.892,0,0,0,4.713-1.105,8.493,8.493,0,0,1,2.405-.325,6.05,6.05,0,0,1,3.477.91,2.961,2.961,0,0,1,1.333,2.6q0,2.34-3.315,3.315A25,25,0,0,1,42.12,44.25Zm1.365,33.8A21.064,21.064,0,0,1,33.54,76a11.789,11.789,0,0,1-5.525-6.793,10.373,10.373,0,0,1-.52-2.145q0-.39.26-.39a.979.979,0,0,1,.618.357l.552.552a13.338,13.338,0,0,0,2.665,1.787A14.833,14.833,0,0,0,35.1,70.51a21.293,21.293,0,0,0,4.29.39,66.409,66.409,0,0,0,7.02-.52q2.73-.325,3.64-.325a5.322,5.322,0,0,1,3.608,1.105,3.48,3.48,0,0,1,1.268,2.73q0,2.665-3.25,3.412A37.409,37.409,0,0,1,43.485,78.05Zm-18.07,50.49q.195-.26.682-.78a8.316,8.316,0,0,1,.813-.78.981.981,0,0,1,.585-.26q.585,0,2.99,2.048a14.5,14.5,0,0,1,2.99,3.087q.2.26-.13.585a4.22,4.22,0,0,1-2.145.845q-.195,7.215-.585,11.342a29.112,29.112,0,0,1-1.17,6.4,7.431,7.431,0,0,1-2.21,3.445,9.558,9.558,0,0,1-6.175,2.08.46.46,0,0,1-.52-.52,7.5,7.5,0,0,0-.91-4.29,7.051,7.051,0,0,0-3.38-1.95.509.509,0,0,1-.455-.585q0-.325.39-.325.91,0,2.86.13l1.755.065a2.187,2.187,0,0,0,1.69-.52q.845-.78,1.267-4.55t.618-11.83h-7.93a86.6,86.6,0,0,1-.812,12.285,37.758,37.758,0,0,1-3.64,11.375,27.976,27.976,0,0,1-8.417,9.945q-.325.39-.65.065a.512.512,0,0,1-.065-.715,41.647,41.647,0,0,0,5.07-14.69,121.986,121.986,0,0,0,1.235-18.33v-8.58a74.484,74.484,0,0,0-.39-8.125v-.13q0-.52.52-.325l8.32,3.185H33.8q-.39-6.24-.39-12.805,0-.585.585-.455,8.32.52,8.32,1.43,0,.195-.52.585l-1.105.78v2.6q0,3.965.2,7.865h9.36l2.21-2.925H52.13a5.616,5.616,0,0,1-1.755-.325.76.76,0,0,1-.455-.52,14.573,14.573,0,0,0-2.405-3.8,24.847,24.847,0,0,0-3.315-3.282q-.39-.26-.2-.585a1.035,1.035,0,0,1,.585-.325h1.365q4.81,0,7.118,1.658A4.737,4.737,0,0,1,55.38,111.9a3.883,3.883,0,0,1-.325,1.5q3.315,2.665,6.175,5.33a.493.493,0,0,1,.13.65,1.755,1.755,0,0,1-1.56.585H40.95a74.633,74.633,0,0,0,3.64,19.565l.845-1.885a46.355,46.355,0,0,0,2.015-6.208,35.376,35.376,0,0,0,1.04-6.077q.13-.585.65-.39,5.2,1.755,7.215,2.665t2.015,1.365q0,.26-.52.455l-1.235.455a64.934,64.934,0,0,1-8.645,16.77,28.847,28.847,0,0,0,6.565,7.41,1.78,1.78,0,0,0,1.04.65q.52,0,1.04-.91a80.158,80.158,0,0,0,3.705-7.475q.2-.39.455-.39a.319.319,0,0,1,.292.162.546.546,0,0,1,.033.423L59.735,157.01q2.08,3.575,2.08,5.33a2.025,2.025,0,0,1-.585,1.5,4.229,4.229,0,0,1-3.12,1.235,8.652,8.652,0,0,1-4.03-1.138,18.171,18.171,0,0,1-3.835-2.7,37.146,37.146,0,0,1-7.28-8.645,52.76,52.76,0,0,1-18.85,12.415.441.441,0,0,1-.65-.2.46.46,0,0,1,.195-.65,52.846,52.846,0,0,0,16.575-16.64q-4.94-10.66-6.24-27.56H16.445v10.4h7.41Zm26.52,85.72q.325-.455.91-1.17t.91-1.072a.876.876,0,0,1,.585-.357q.585,0,3.607,2.307a16.867,16.867,0,0,1,3.608,3.283.59.59,0,0,1,0,.65,1.683,1.683,0,0,1-1.625.715H50.44q6.76,5,6.76,5.85,0,.325-.585.325l-1.17.065a100.292,100.292,0,0,1-13.26,5.525A31.9,31.9,0,0,0,50.7,234.6a74.66,74.66,0,0,0,10.92,2.665q.455.065.455.39t-.455.52a7.257,7.257,0,0,0-3.283,2.21,10.074,10.074,0,0,0-1.982,3.835q-.13.52-.65.325a45.619,45.619,0,0,1-11.147-5.4,28.407,28.407,0,0,1-7.865-8.19,39.863,39.863,0,0,1-4.972-12.35H23.465V234.6l11.83-2.275q.52-.13.585.26v.13a.588.588,0,0,1-.325.52q-9.815,5.33-23.53,11.115a2.188,2.188,0,0,1-1.105,1.43.588.588,0,0,1-.422.1.344.344,0,0,1-.293-.293l-3.9-7.28a.724.724,0,0,1-.065-.325q0-.325.39-.325l2.665-.455,6.7-1.17v-17.42h-4.1a41.162,41.162,0,0,0-7.085.845H4.615a.548.548,0,0,1-.455-.325l-1.105-2.21a.376.376,0,0,1-.065-.26q0-.325.455-.325,3.575.325,7.93.455H15.99v-17.16a99.175,99.175,0,0,0-.715-12.61v-.13q0-.52.52-.325l8.645,3.38H44.2l1.885-2.535q.325-.39.845-1.105a9.376,9.376,0,0,1,.877-1.072.979.979,0,0,1,.618-.357q.585,0,3.478,2.307a17.316,17.316,0,0,1,3.478,3.283.59.59,0,0,1,0,.65,1.683,1.683,0,0,1-1.625.715H23.465v7.02H42.12l1.755-2.4q.26-.325.78-1.04a13.407,13.407,0,0,1,.845-1.073.876.876,0,0,1,.585-.357q.585,0,3.38,2.145a15.5,15.5,0,0,1,3.38,3.12,1.14,1.14,0,0,1,.13.325.857.857,0,0,1-.52.747,2.623,2.623,0,0,1-1.3.292H23.465v7.15H42.12l1.755-2.405q.26-.325.78-1.04a13.407,13.407,0,0,1,.845-1.073.876.876,0,0,1,.585-.357q.585,0,3.38,2.177a15.917,15.917,0,0,1,3.38,3.152,1.14,1.14,0,0,1,.13.325.857.857,0,0,1-.52.747,2.623,2.623,0,0,1-1.3.292H23.465v7.215h26.52Zm-18.98,4.355a24.94,24.94,0,0,0,7.41,10.4q2.73-2.47,5.46-5.363a63.33,63.33,0,0,0,4.355-5.037ZM31.85,321.56q-7.93,0-11.538-4.712T16.7,302.9q0-4.875.423-9.165t.487-4.94q.065-.455.358-3.315a51.5,51.5,0,0,0,.292-5.2,10.587,10.587,0,0,0-1.1-4.973,7.374,7.374,0,0,0-2.8-3.087q-.65-.325-.65-.65,0-.455,1.528-.747a15.4,15.4,0,0,1,2.892-.293q4.225,0,6.012,1.983a8.007,8.007,0,0,1,1.788,5.557,26.42,26.42,0,0,1-.487,4.68q-.487,2.665-1.4,6.435a58.255,58.255,0,0,0-1.69,13.2q0,6.89,2.73,9.783t8.84,2.892q10.14,0,21.385-10.4a2.481,2.481,0,0,1,1.235-.715q.13,0,.13.2a2.823,2.823,0,0,1-.65,1.365Q44.98,321.56,31.85,321.56Z" transform="translate(1681 1242)" fill="#d0beaf"/>
      <path id="パス_26" data-name="パス 26" d="M50.9-41.145q.39-.52.878-1.235a10.282,10.282,0,0,1,.812-1.072.876.876,0,0,1,.585-.358q.585,0,3.282,2.373a15.375,15.375,0,0,1,3.217,3.413,1.14,1.14,0,0,1,.13.325.857.857,0,0,1-.52.748,2.345,2.345,0,0,1-1.17.292H45.89v18h4.29l1.95-2.86q.325-.455.91-1.267t.91-1.2q.325-.39.585-.39.585,0,3.64,2.567a18.651,18.651,0,0,1,3.64,3.608.59.59,0,0,1,0,.65q-.39.715-1.69.715H14.3a69.688,69.688,0,0,0-9.3.845h-.2a.548.548,0,0,1-.455-.325l-1.17-2.21a.376.376,0,0,1-.065-.26q0-.325.52-.325,3.51.325,7.865.455H18.33v-18H14.17a32.17,32.17,0,0,0-6.955.845h-.2a.548.548,0,0,1-.455-.325l-1.17-2.275a.376.376,0,0,1-.065-.26q0-.325.455-.325,3.575.325,7.93.455H18.33V-41.47a88.094,88.094,0,0,0-.78-12.675q0-.65.585-.52Q23.4-53.56,25.35-52.91t1.95,1.1q0,.26-.52.585l-1.17.78v11.9H38.48V-41.47a88.093,88.093,0,0,0-.78-12.675q0-.65.585-.52,5.33,1.105,7.313,1.755t1.982,1.1q0,.2-.52.585l-1.17.78v11.9h3.25ZM38.48-36.66H25.61v18H38.48ZM20.735-14.95a.411.411,0,0,1,.292-.325.487.487,0,0,1,.423.065L26-12.155q3.9,2.145,3.9,2.86,0,.325-.715.455l-1.17.195A52.534,52.534,0,0,1,17.778-.423,56.436,56.436,0,0,1,4.615,5.72q-.52.13-.65-.195a.463.463,0,0,1,.2-.715,60.192,60.192,0,0,0,10.4-9.555A34.781,34.781,0,0,0,18.3-9.815,24.722,24.722,0,0,0,20.735-14.95ZM37.57-12.09a.656.656,0,0,1-.26-.293.252.252,0,0,1,.065-.292.7.7,0,0,1,.65-.2A39.366,39.366,0,0,1,49.79-9.3a19.1,19.1,0,0,1,6.7,5.233A9.183,9.183,0,0,1,58.565,1.3a4.427,4.427,0,0,1-1.04,3.055,3.478,3.478,0,0,1-2.73,1.17,5.429,5.429,0,0,1-2.34-.52A.76.76,0,0,1,52,4.485a39.141,39.141,0,0,0-6.11-8.71A66.849,66.849,0,0,0,37.57-12.09ZM18.265,80.39a4.579,4.579,0,0,1-2.957-1.463,10.407,10.407,0,0,1-2.5-3.542,34.653,34.653,0,0,1-2.795-14.3,37.755,37.755,0,0,1,.617-7.312q.618-3.088,1.788-6.922a39.526,39.526,0,0,0,1.235-4.258,17.179,17.179,0,0,0,.39-3.673,10.509,10.509,0,0,0-.52-3.282,5.261,5.261,0,0,0-1.625-2.5q-.195-.195-.52-.487t-.325-.487q0-.13.162-.195a.954.954,0,0,1,.358-.065,6.428,6.428,0,0,1,1.1.26,13.754,13.754,0,0,1,5.882,3.217A7.881,7.881,0,0,1,20.93,41.39a8.3,8.3,0,0,1-.78,3.64,37.92,37.92,0,0,1-2.34,4.03q-1.1,1.625-1.788,2.827a11.683,11.683,0,0,0-1.072,2.568,17.14,17.14,0,0,0-.715,4.615,8.688,8.688,0,0,0,.423,2.763Q15.08,63.1,15.665,63.1a.7.7,0,0,0,.52-.357,9.41,9.41,0,0,0,.585-.943q1.04-2.015,2.243-4.452t1.853-3.8a3.057,3.057,0,0,1,.39-.618q.2-.227.325-.227.195,0,.195.26a2.491,2.491,0,0,1-.195.78q-1.17,3.38-2.275,7.54a27.394,27.394,0,0,0-1.1,6.63,12.007,12.007,0,0,0,.39,3.217,26.253,26.253,0,0,0,1.17,3.217,18.984,18.984,0,0,1,.683,1.853,5.856,5.856,0,0,1,.292,1.722,2.335,2.335,0,0,1-.715,1.82A2.513,2.513,0,0,1,18.265,80.39ZM42.12,44.25a17.276,17.276,0,0,1-7.8-1.625,9.228,9.228,0,0,1-3.12-2.21,12.119,12.119,0,0,1-1.885-2.665,2.519,2.519,0,0,1-.26-.975q0-.325.195-.325a2.027,2.027,0,0,1,.65.325q.52.325.845.52a15.24,15.24,0,0,0,5.59,1.04,25.272,25.272,0,0,0,4.257-.455,40.892,40.892,0,0,0,4.713-1.105,8.493,8.493,0,0,1,2.405-.325,6.05,6.05,0,0,1,3.477.91,2.961,2.961,0,0,1,1.333,2.6q0,2.34-3.315,3.315A25,25,0,0,1,42.12,44.25Zm1.365,33.8A21.064,21.064,0,0,1,33.54,76a11.789,11.789,0,0,1-5.525-6.793,10.373,10.373,0,0,1-.52-2.145q0-.39.26-.39a.979.979,0,0,1,.618.357l.552.552a13.338,13.338,0,0,0,2.665,1.787A14.833,14.833,0,0,0,35.1,70.51a21.293,21.293,0,0,0,4.29.39,66.409,66.409,0,0,0,7.02-.52q2.73-.325,3.64-.325a5.322,5.322,0,0,1,3.608,1.105,3.48,3.48,0,0,1,1.268,2.73q0,2.665-3.25,3.412A37.409,37.409,0,0,1,43.485,78.05ZM56.875,148.1a5.313,5.313,0,0,1,1.885,1.17,34.441,34.441,0,0,1,2.827,2.47q1.332,1.3,1.333,1.755a1,1,0,0,1-.52.78,2.194,2.194,0,0,1-1.1.26H47.19v2.99l.13,2.4q0,1.04.13,2.86a1.124,1.124,0,0,1-.065.65,6,6,0,0,1-2.275,1.56,7.874,7.874,0,0,1-3.315.78q-1.69,0-1.69-1.3.26-2.4.39-6.175v-3.77H35.75a54.847,54.847,0,0,0-8.255.845h-.2a.548.548,0,0,1-.455-.325l-1.5-2.795q-3.185,3.055-6.435,5.98a3.057,3.057,0,0,1-.975,1.56.376.376,0,0,1-.26.065q-.26,0-.39-.325l-3.055-6.76q-.2-.585.26-.65.52-.195,1.235-.39t1.69-.52v-20.02H14.3a120.437,120.437,0,0,1-.878,13.195A48.639,48.639,0,0,1,10.6,155.613,30.022,30.022,0,0,1,4.55,165.33a.59.59,0,0,1-.423.195.408.408,0,0,1-.358-.195l-.195-.2a.619.619,0,0,1-.065-.715,41.3,41.3,0,0,0,3.217-10.01,73.554,73.554,0,0,0,1.235-10.27q.228-4.94.293-12.935H6.7a4.347,4.347,0,0,0-1.885.585.588.588,0,0,1-.422.1A.344.344,0,0,1,4.1,131.6l-1.04-2.145-.065-.26q0-.39.52-.26,2.925.26,5.85.39h3.185V118.53a99.769,99.769,0,0,0-.715-12.675v-.13q0-.52.585-.39,4.355,1.04,6.045,1.658t1.69,1.073q0,.26-.455.52l-.91.585v20.15H20.54l2.925-3.77q.26-.39.715-.065,2.99,2.34,4.81,4.03,0-2.665-.195-4.875v-.13q0-.52.52-.325l6.7,2.86H40.5V122.17H36.4a41.164,41.164,0,0,0-7.085.845H29.12a.548.548,0,0,1-.455-.325l-1.17-2.275a.376.376,0,0,1-.065-.26q0-.325.455-.325,3.575.325,7.93.455H40.5a53.852,53.852,0,0,0-.39-6.89q0-.65.585-.52a62.451,62.451,0,0,1,6.273,1.755q1.723.65,1.722,1.105,0,.195-.455.52l-1.04.715v3.315h4.485l1.5-2.015q.26-.325.715-.91a9.874,9.874,0,0,1,.748-.878.821.821,0,0,1,.552-.292q.585,0,2.828,1.82a11.673,11.673,0,0,1,2.763,2.8l.065.26a.905.905,0,0,1-.487.813,2.3,2.3,0,0,1-1.2.292H47.19v4.875h4.875l1.365-2.08q.26-.325.682-.91t.682-.878a.721.721,0,0,1,.52-.292q.585,0,2.892,1.95a13.672,13.672,0,0,1,2.892,2.99q.2.26-.13.585a3.962,3.962,0,0,1-2.145.975v5.785q.2,7.02.39,10.79a.882.882,0,0,1-.26.65,6.1,6.1,0,0,1-2.113,1.072,10.572,10.572,0,0,1-3.347.488h-.65a.46.46,0,0,1-.52-.52v-2.08H47.19v7.15H53.3l1.56-2.275q.26-.39.715-1.04a10.751,10.751,0,0,1,.748-.975A.8.8,0,0,1,56.875,148.1ZM20.15,122.365q.585-3.055.942-6.5a48.471,48.471,0,0,0,.293-6.11.469.469,0,0,1,.162-.39.372.372,0,0,1,.423,0l6.37,2.6a3.781,3.781,0,0,1,.975-.65,9.233,9.233,0,0,0,2.112-2.178,5.665,5.665,0,0,0,1.137-2.762q0-.52.455-.52.52,0,.585.39a11.435,11.435,0,0,1,.65,2.535H53.69l1.43-1.69q.26-.26.91-1.007t1.04-.748q.52,0,2.763,2.145a15.646,15.646,0,0,1,2.827,3.25.493.493,0,0,1-.13.65,5.9,5.9,0,0,1-2.145.455q-1.365,1.17-3.25,2.567t-3.445,2.372a.6.6,0,0,1-.91-.65q.455-1.755.91-4.1a11.334,11.334,0,0,0,.325-1.365h-19.5a10.508,10.508,0,0,1-.422,4.257,5.433,5.433,0,0,1-1.853,2.7,3.31,3.31,0,0,1-2.08.65,3.529,3.529,0,0,1-1.917-.553,3.108,3.108,0,0,1-1.267-1.592,3.556,3.556,0,0,1-.13-.78,102.933,102.933,0,0,1-6.435,10.4.524.524,0,0,1-.39.26q-.585,0-.455-.65Zm-13.845,2.47a.624.624,0,0,1-.2-.455v-1.5A51.763,51.763,0,0,0,4.225,110.6v-.13a.506.506,0,0,1,.325-.52.57.57,0,0,1,.715.13,18.712,18.712,0,0,1,4.713,5.753,12.488,12.488,0,0,1,1.462,5.492,5.805,5.805,0,0,1-.877,3.315,2.526,2.526,0,0,1-2.113,1.3A2.98,2.98,0,0,1,6.305,124.835Zm28.99,10.4h5.2V128.93h-5.2Zm17.03-6.305H47.19v6.305h5.135Zm-28.86,2.275V149.21L28.99,147.2V131.01a2.171,2.171,0,0,1-.975.2Zm11.83,12.545h5.2v-6.7h-5.2Zm17.03-6.7H47.19v6.7h5.135ZM40.5,152.72v-7.15h-5.2v2.275q0,.26-.65.65a6.84,6.84,0,0,1-1.82.683,11.026,11.026,0,0,1-2.665.292h-.65q-.52,0-.52-.39v-.39l-3.575,3.51q3.575.39,8.58.52ZM35.88,243.38q-3.51,0-5.59-6.825A72.521,72.521,0,0,0,26.682,227a43.083,43.083,0,0,0-3.477-5.785,35.2,35.2,0,0,1-2.5-3.8,5.714,5.714,0,0,1-.748-2.7,6.191,6.191,0,0,1,.618-2.535,26.3,26.3,0,0,1,2.047-3.51q3.12-4.745,4.583-7.475t3.217-6.435a6.146,6.146,0,0,0,.455-2.015,4.716,4.716,0,0,0-.682-2.4,4.291,4.291,0,0,0-1.658-1.69,7.515,7.515,0,0,0-.78-.487q-.52-.293-.52-.488,0-.26.65-.423a6.193,6.193,0,0,1,1.495-.163,14.218,14.218,0,0,1,3.9.618,13.826,13.826,0,0,1,3.965,1.852,4.658,4.658,0,0,1,2.4,4.03,3.88,3.88,0,0,1-.585,2.145,14.83,14.83,0,0,1-1.69,2.5q-.91,1.072-3.25,3.477l-2.08,2.145q-3.38,3.51-7.8,8.9a3.1,3.1,0,0,0-.715,1.95,2.733,2.733,0,0,0,.91,1.95q4.355,4.03,7.313,7.215a40.425,40.425,0,0,1,5.33,7.28,16.11,16.11,0,0,1,2.372,8.125,4.483,4.483,0,0,1-.943,2.957A3.23,3.23,0,0,1,35.88,243.38Z" transform="translate(1595 1435)" fill="#d0beaf"/>
    </g>
  </g>
</svg>
